<svg width="355" height="140" viewBox="0 0 355 140" fill="none" xmlns="http://www.w3.org/2000/svg">
    <path d="M129.393 53.177c-2.213 1.865-4.831 3.557-7.834 4.97-9.633 4.53-20.738 5.231-29.32 2.379l-.754-.143.482.514c13.093 6.286 28.545 8.966 40.807 6.14 3.73-.86 6.858-2.17 9.385-3.819l-4.898-3.852-7.868-6.19z" fill="#00B1E6"/>
    <path d="M120.875 56.731c2.837-1.327 5.297-2.942 7.371-4.736l-18.178-15.112-.301-.249-16.75 21.657c8.222 3.03 18.768 2.7 27.858-1.56z" fill="#8AADD7"/>
    <path d="M127.672 22.53c-5.016 2.597-9.572 5.537-13.617 8.717a78.954 78.954 0 0 0-2.567 2.108s6.888-2.503 10.645-3.243c12.27-2.418 27.618.668 40.451 7.28l19.53-22.632c-8.854-2.557-19.53-2.79-30.621-.607a85.364 85.364 0 0 0-4.048.9c-6.601 1.637-13.29 4.124-19.773 7.476z" fill="#00539F"/>
    <path d="M123.582 45.913c2.236-1.839 4.878-3.493 7.901-4.862 8.819-4.001 18.789-4.728 26.946-2.597.715.186 1.481.28 2.168.513l1.559.3-1.227-.765c-12.954-6.376-28.313-9.137-40.532-6.496-3.75.81-6.893 2.077-9.441 3.692l4.846 3.921 7.78 6.294z" fill="#00B1E6"/>
    <path d="m143.436 62.189.096.076 18.252-21.961c-8.502-2.862-19.457-2.384-29.049 1.97-3.021 1.369-5.662 3.026-7.9 4.863l18.601 15.052z" fill="#8AADD7"/>
    <path d="M131.547 68.889c-12.299 2.658-27.828-.197-40.834-6.66l-19.147 23.03c15.27 4.219 35.87 1.432 54.587-8.691 5.985-3.235 11.292-6.966 15.837-10.997-.157-.039-6.698 2.508-10.443 3.318z" fill="#00539F"/>
    <path d="M53.752 63.657c2.226-1.854 4.852-3.53 7.864-4.924 9.66-4.47 20.77-5.107 29.333-2.206l.757.145-.478-.517c-13.059-6.362-28.494-9.131-40.773-6.379-3.736.838-6.872 2.128-9.408 3.763l4.875 3.883 7.83 6.235z" fill="#8BB612"/>
    <path d="M62.29 60.151c-2.843 1.312-5.312 2.91-7.397 4.696l18.085 15.216.297.25 16.882-21.558c-8.202-3.076-18.751-2.81-27.866 1.396z" fill="#CBD300"/>
    <path d="M60.873 86.764c-12.28 2.345-27.61-.83-40.407-7.517L.8 101.76c15.133 4.47 35.647 2.16 54.488-7.448 5.034-2.564 9.605-5.48 13.671-8.636a83.158 83.158 0 0 0 2.582-2.095s-6.904 2.468-10.668 3.182z" fill="#447A1C"/>
    <path d="M59.522 70.953c-2.25 1.823-4.9 3.465-7.931 4.817-8.84 3.953-18.817 4.618-26.963 2.44-.712-.192-1.476-.292-2.16-.529l-1.562-.307 1.222.772c12.916 6.452 28.26 9.302 40.494 6.733 3.75-.786 6.905-2.034 9.461-3.638l-4.82-3.944-7.74-6.344z" fill="#8BB612"/>
    <path d="m39.762 54.563-.092-.077-18.386 21.85c8.485 2.916 19.442 2.5 29.06-1.8 3.03-1.35 5.678-2.992 7.93-4.815L39.763 54.563z" fill="#CBD300"/>
    <path d="M51.695 47.931c12.314-2.587 27.825.363 40.793 6.902l19.284-22.919c-15.24-4.307-35.858-1.644-54.637 8.37-6.006 3.202-11.332 6.902-15.901 10.903.156.04 6.711-2.47 10.46-3.255zM30.575 121.774l3.45-.913a14.6 14.6 0 0 1-1.8.225c-.769.125-1.119.391-1.65.688zM37.222 120.019l.61-.16.5-.206-1.11.366zM43.153 118.191a38.32 38.32 0 0 0-3.046.87c.882-.186 1.89-.461 3.046-.87zM38.34 119.333c.399.002.6.066.014.313l-.022.008 1.775-.592c-.654.137-1.244.223-1.768.271zM38.34 119.332c-.39-.001-.976.058-1.189.053.351.004.746-.012 1.19-.053zM39.163 116.421c.572-.242.627.503 1.78.015 1.382-.482 2.647-.989 3.907-1.422 1.26-.426 2.505-.821 3.825-1.152 1.17-.462 3.28-.151 4.433-.607 2.779-.907 9.792-3.673 5.527-2.561a804.42 804.42 0 0 0-16.24 4.557c-4.573 1.566-8.945 3.135-13.62 4.699-1.32.4-2.584.69-3.854.989l5.264-1.105c2.492-.477 5.192-2.196 8.979-3.413zM5.255 128.78l1.708-.774c2.81-.298 5.535-1.337 8.258-2.375l-1.344.025c-1.587.523-1.71.774-.243.498-3.375.555-6.464 1.417-9.573 2.434.254.131.28.363 1.194.192zM2.234 129.204l1.826-.615c-.017-.017-.055-.027-.091-.04l-1.802.656c.017 0 .05-.002.067-.001zM55.757 114.304c4.006-1.004 7.89-2.009 11.716-2.899l11.31-2.455c.535-.265.904-.517 1.683-.604a14.715 14.715 0 0 0 1.804-.138l3.24-.685 1.137-.314.021-.008c.591-.218.394-.29-.003-.311-.439.019-.844.017-1.193-.005.222.013.8-.016 1.193.005a16.501 16.501 0 0 0 1.788-.185 37.861 37.861 0 0 1 3.098-.644 23.572 23.572 0 0 1-3.097.644l-1.807.504-.521.185c2.475-.551 4.962-.961 7.448-1.429l1.538-.365c1.765-.452 3.537-.903 4.717-.775l1.331-.241c-.092-.005-.181-.005-.265-.014.198-.017.364-.025.502-.03l5.635-1.023c1.195-.373 2.406-.803 3.643-1.136l1.341.138c.476-.268 1.189-.515 2.027-.722-1.046-.041-2.027-.117-2.914-.114-1.346-.154-2.678 1.266-4.309.876 1.631.39 2.963-1.03 4.309-.876.887-.003 1.868.073 2.914.114 1.765-.438 4.099-.71 6.011-.68-2.245.704-4.244.746-6.011.68-.838.207-1.551.454-2.027.722l-1.341-.138c-1.237.333-2.448.763-3.643 1.136 3.67-.708 7.425-1.224 11.229-1.838l9.123-1.427 4.507-.72c1.499-.236 3.002-.418 4.498-.63l17.887-2.498 18.112-2.11 4.607-.527 4.667-.412c3.128-.267 6.292-.539 9.5-.814l5.187-.42c1.721-.143 3.434-.28 5.145-.353l10.173-.513c3.364-.155 6.703-.31 10.022-.462l9.911-.157c6.547-.08 12.94-.343 19.273-.339l9.454-.125c3.141-.042 6.274-.12 9.41-.04 6.271.09 12.55.206 18.908.435 6.354.398 12.787.902 19.361 1.587 2.523.211 5.58.543 8.907.797 3.327.263 6.92.5 10.504.714l5.334.307 5.101.417 8.709.7c13.145-.03 6.748-3.763 6.13-3.997-3.89-1.696-7.463-2.318-12.09-2.897l-7.917-.954c-3.029-.311-6.5-.729-10.601-1.376 5.59.793 3.484 1.094-1.319.887a125.911 125.911 0 0 1-8.618-.695c-3.138-.34-6.34-.693-8.978-1.257-3.817-.828-8.067-1.357-12.585-1.705-2.259-.204-4.588-.213-6.962-.264a362.93 362.93 0 0 0-7.248-.024c-9.805-.064-20.038.654-29.552.46-1.19-.014-2.399-.039-3.629.004l-3.764.157c-2.564.12-5.243.261-8.086.365-3.685.062-7.339.109-10.965.266-3.624.201-7.226.427-10.816.671l-10.744.785-10.716 1.133-10.781 1.174c-3.607.436-7.227.956-10.886 1.428l-11.091 1.43c-3.735.495-7.502 1.096-11.336 1.62-4.054.605-7.841 1.339-11.456 2.093-3.607.804-7.032 1.694-10.398 2.456-4.936 1.003-10.329 1.508-14.344 2.295-6.316 1.259-11.71 2.592-16.851 3.941 5.794-1.287 10-2.322 16.468-3.72 4.319-.902-2.832 1.52-5.65 2.29-1.192.404-3.28-.01-4.466.394-2.672.532-5.053 1.338-7.872 2.108-1.184.404-1.197-.343-1.789-.14-3.848 1.032-6.63 2.619-9.152 2.977l-5.313.848c-1.059.196-2.106.396-3.195.67l-2.07.651c.612.093.88.314 1.137.54-1.028.195-2.512.339-3.55.562 1.038-.223 2.522-.367 3.55-.562-.257-.226-.525-.447-1.136-.54l-1.91.593-1.96.648-4.042 1.314-8.187 2.583.095.043c3.154-.864 6.28-1.575 9.674-1.963-1.464.199-1.333-.044.284-.492l1.338.042c-2.787.909-5.557 1.814-8.369 1.971l-1.753.693c-.922.125-.934-.109-1.174-.251l-1.867.527c1.425.019 5.708-.567 5.708-.567z" fill="#447A1C"/>
    <path d="m88.53 106.713-1.532.397c2.073-.446 4.168-.78 6.248-1.172-1.168-.131-2.936.32-4.716.775zM136.79 130.67c-.126-.519-.383-.953-.781-1.229a1.593 1.593 0 0 0-.922-.305c-.123 0-.246.015-.364.045a1.486 1.486 0 0 0-.951.715 1.522 1.522 0 0 0-.18 1.179c.066.253.214.498.443.83.165.236.26.44.298.6.029.118.042.227.042.32a.72.72 0 0 1-.128.433c-.119.174-.383.346-.85.458a3.694 3.694 0 0 1-.746.059c-.421 0-.969-.035-1.638-.107a21.511 21.511 0 0 0-2.425-.143c-1.319 0-2.557.137-3.711.412-1.072.256-2.455.835-4.178 1.74l2.923-5.148 6.347-10.645a51.438 51.438 0 0 1 2.349-3.629c.754-1.1 1.165-1.792 1.19-2.386a.824.824 0 0 0-.021-.196c-.065-.253-.256-.41-.449-.507a1.029 1.029 0 0 0-.468-.116c-.08 0-.16.011-.238.029-.242.069-.418.203-.69.416a6.763 6.763 0 0 1-2.828 1.425c-1.047.25-2.725.474-5.005.664-1.02.086-1.889.214-2.614.386-1.175.275-2.111.905-2.737 1.852-.445.663-.677 1.384-.674 2.129 0 .308.039.62.114.934.185.757.521 1.362 1.035 1.764.371.29.792.46 1.23.46.138 0 .278-.016.415-.049.375-.083.697-.317.894-.643a1.396 1.396 0 0 0 .175-1.076 1.475 1.475 0 0 0-.383-.714c-.213-.204-.517-.365-.977-.578-.376-.165-.501-.324-.539-.483a.39.39 0 0 1-.017-.117c.003-.106.036-.214.151-.356.127-.162.39-.323.827-.427.1-.026.44-.053.929-.051.294 0 .652.008 1.071.022.365.015.721.021 1.066.021 1.393 0 2.608-.12 3.654-.365.451-.108.89-.242 1.316-.4a55.59 55.59 0 0 1-2.233 4.049l-3.832 6.312c-1.638 2.635-2.84 4.619-3.608 5.947-.934 1.583-1.582 2.649-1.932 3.181-.289.438-.46.84-.462 1.247 0 .097.01.195.034.288.047.2.169.401.352.524.177.098.336.147.506.147.065 0 .13-.007.193-.02.268-.069.523-.218.85-.442.662-.484 2.289-1.07 4.782-1.656a51.213 51.213 0 0 1 6.146-1.091c1.715-.182 2.907-.352 3.609-.517a5.069 5.069 0 0 0 2.921-1.895c.549-.712.838-1.505.835-2.341a3.954 3.954 0 0 0-.116-.956zM140.9 113.992c.256.176.56.272.872.271h.022c.109 0 .218-.014.329-.035.549-.112.998-.473 1.3-.987.219-.373.337-.775.337-1.188 0-.163-.016-.327-.052-.491a1.62 1.62 0 0 0-.693-1.05 1.536 1.536 0 0 0-.864-.258 1.967 1.967 0 0 0-1.682.991 2.154 2.154 0 0 0-.324 1.142c0 .171.022.343.057.516.095.454.331.845.698 1.089zM145 128.071l-.209.297c-.596.845-1.087 1.484-1.464 1.91a4.575 4.575 0 0 1-.468.474c-.062.055-.109.084-.139.103-.03-.027-.057-.068-.077-.16-.05-.216-.081-.667-.081-1.305 0-1.281.117-3.336.349-6.148.165-1.963.248-3.27.248-3.956a2.818 2.818 0 0 0-.034-.513 1.181 1.181 0 0 0-.624-.839 1.437 1.437 0 0 0-.668-.151c-.152 0-.309.02-.475.054-.757.159-1.542.627-2.395 1.365-.869.757-1.735 1.879-2.618 3.368l-.212.353 1.547.74.187-.276c.784-1.158 1.323-1.874 1.514-2.052.18-.174.338-.27.458-.312.017.088.026.192.026.31 0 .081-.004.165-.011.252-.35 3.731-.522 6.556-.522 8.486 0 1.074.051 1.868.169 2.419.105.498.341.92.722 1.185.265.184.581.278.908.278.136 0 .275-.016.416-.044.568-.123 1.146-.484 1.803-1.059.679-.601 1.616-1.767 2.872-3.546l.231-.327-1.453-.906zM160.579 125.091l-.266.31c-.513.599-.944 1.112-1.3 1.543-.544.704-1.009 1.072-1.11 1.116a.621.621 0 0 1-.047-.165 6.39 6.39 0 0 1-.106-1.222c0-.096.002-.195.006-.299.017-.579.167-2.165.444-4.704.211-1.849.33-3.12.351-3.835a5.29 5.29 0 0 0-.091-1.256c-.098-.523-.341-.968-.738-1.248a1.714 1.714 0 0 0-.982-.297c-.145 0-.288.016-.433.043-.699.136-1.43.609-2.281 1.378a22.167 22.167 0 0 0-3.058 3.375l.256-7.381c.048-1.588.223-2.632.416-2.98.209-.39.47-.583.893-.667.331-.065 1.02-.123 2.02-.164.46-.023.833-.06 1.135-.117.54-.099.993-.325 1.297-.698.228-.278.367-.603.366-.945a1.546 1.546 0 0 0-.813-1.341 1.909 1.909 0 0 0-.962-.236c-.174 0-.351.019-.533.054-1.243.232-2.431.811-3.549 1.711-1.123.907-1.972 2.003-2.534 3.275-.567 1.285-.872 2.978-.944 5.092l-.426 11.287a137.672 137.672 0 0 1-.333 5.038l-.041.497 3.344-.627.225-6.448c.048-1.292.258-2.275.587-2.941a10.438 10.438 0 0 1 2.116-2.882c.604-.585 1.116-.883 1.471-.946a.513.513 0 0 1 .109-.014c.036.008.055.008.065.008.027 0 .01 0 .061.131.004.016.012.122.012.273 0 .393-.042 1.129-.126 2.182-.331 2.993-.508 4.937-.531 5.862-.006.182-.006.36-.006.524 0 .656.033 1.175.111 1.575.139.704.368 1.25.773 1.61a1.576 1.576 0 0 0 1.384.38c.609-.118 1.227-.51 1.918-1.136 1.007-.911 1.929-2.052 2.773-3.421l.157-.258-1.08-1.036zM176.629 122.51l-.236.33c-.87 1.214-1.483 1.989-1.771 2.263-.195.179-.356.253-.439.263h-.001c-.003 0-.014.006-.068-.035-.021-.017-.068-.071-.097-.231a2.23 2.23 0 0 1-.016-.333c0-.808.151-2.715.458-5.667l.664-6.678-3.23.529-.027.294-.699 7.265c-.134 1.311-.669 2.551-1.633 3.741-.969 1.22-1.787 1.824-2.224 1.876l-.033.001c-.048 0-.108-.012-.211-.093a.496.496 0 0 1-.196-.338 2.216 2.216 0 0 1-.015-.299c0-.667.107-2.174.326-4.481.217-2.245.325-3.896.329-4.971-.004-.457-.02-.808-.064-1.078-.079-.465-.235-.85-.544-1.111a1.233 1.233 0 0 0-.8-.291c-.083 0-.16.009-.237.021-.594.102-1.243.453-2.007 1.026-.785.596-1.812 1.691-3.128 3.306l-.284.351 1.545.85.202-.265c.714-.932 1.238-1.532 1.504-1.753.252-.214.46-.325.563-.356a.798.798 0 0 1 .024.097c.012.083.024.256.024.488 0 .793-.118 2.305-.353 4.498-.247 2.251-.383 3.742-.415 4.502a7.86 7.86 0 0 0 .09 1.526c.106.61.306 1.098.689 1.414.27.222.617.342.979.342h.011c.103 0 .214-.008.326-.026.832-.139 1.698-.607 2.628-1.371a16.325 16.325 0 0 0 2.574-2.635c.001.445.028.833.086 1.171.095.567.327 1.043.729 1.352a1.641 1.641 0 0 0 1.305.336c1.344-.257 2.8-1.78 4.739-4.532l.202-.292-1.269-1.006zM186.59 113.415l-.606 5.1c-.189 1.599-.658 2.835-1.385 3.738-.749.931-1.469 1.397-2.117 1.487-.055.006-.107.013-.153.013-.239-.005-.425-.078-.63-.271-.214-.2-.423-.659-.529-1.391a9.76 9.76 0 0 1-.099-1.359 10.81 10.81 0 0 1 .444-2.984c.435-1.514.988-2.567 1.602-3.162.627-.611 1.398-.982 2.363-1.118a5.83 5.83 0 0 1 .866-.056c.078 0 .16 0 .244.003zm5.094 6.91-.255.324a11.126 11.126 0 0 1-1.758 1.793c-.341.283-.614.41-.638.402l-.03.001v.005a.383.383 0 0 1-.043-.15 4.68 4.68 0 0 1-.028-.595c0-.412.022-.99.068-1.726.131-2.291.33-4.321.594-6.089l.756-5.114-1.862.674-.066.15-.22.501a9.782 9.782 0 0 0-.928.086c-1.496.214-2.712.61-3.644 1.215-1.174.774-2.227 1.857-3.166 3.247a15.3 15.3 0 0 0-2.072 4.491c-.317 1.137-.477 2.195-.477 3.166 0 .393.027.771.079 1.138.154 1.064.547 1.936 1.194 2.56.402.398.942.613 1.528.613h.019c.132 0 .268-.009.41-.03.799-.115 1.592-.527 2.391-1.196a15.349 15.349 0 0 0 2.229-2.269l-.121.825c-.036.21-.053.404-.053.574 0 .088.005.171.017.25.044.326.196.637.472.822.204.135.444.191.692.191.093 0 .188-.007.283-.02a4.094 4.094 0 0 0 1.371-.461c.662-.352 1.336-.837 2.017-1.459.367-.339 1.091-1.166 2.237-2.537l.229-.278-1.225-1.104zM202.372 118.322l-.261.273a21.08 21.08 0 0 1-2.474 2.195c-.652.501-1.159.744-1.371.76a.804.804 0 0 1-.084.007c-.101-.003-.147-.021-.196-.058-.036-.026-.111-.136-.146-.394a4.469 4.469 0 0 1-.03-.561c0-.677.096-1.683.286-3l.735-5.612 3.587-.451.193-2.019-3.557.449.655-5.17-3.438 1.825-.025.194-.449 3.559-2.799.351-.253 2.026 2.797-.352-.824 6.513c-.152 1.181-.228 2.158-.228 2.937 0 .375.018.702.056.99.097.73.288 1.295.676 1.674a1.588 1.588 0 0 0 1.166.453c.071 0 .145-.006.219-.015.623-.081 1.316-.407 2.142-.948.848-.565 2.379-1.923 4.668-4.118l.288-.277-1.333-1.231zM212.353 115.318c-.24 1.592-.75 2.812-1.507 3.689-.785.91-1.517 1.35-2.169 1.419a1.536 1.536 0 0 1-.119.007c-.259-.005-.446-.082-.655-.288-.206-.207-.401-.674-.48-1.409a8.869 8.869 0 0 1-.058-1.043c0-1.069.18-2.163.546-3.285.484-1.5 1.074-2.537 1.706-3.109.651-.593 1.434-.935 2.402-1.041.172-.022.37-.032.595-.032.16 0 .332.006.516.016l-.777 5.076zm5.637 1.992-.266.318a11.023 11.023 0 0 1-1.816 1.737c-.353.27-.625.385-.652.379h-.03v.01c-.008-.01-.027-.053-.038-.154a2.587 2.587 0 0 1-.016-.315c0-.407.044-1.083.132-2.006.21-2.285.475-4.307.8-6.068l.928-5.087-1.887.615-.069.148-.237.493a9.175 9.175 0 0 0-.929.057c-1.505.164-2.731.521-3.683 1.095-1.203.735-2.291 1.784-3.274 3.142a15.273 15.273 0 0 0-2.221 4.422c-.393 1.239-.589 2.385-.589 3.434-.003.293.016.576.047.854.118 1.071.48 1.953 1.106 2.598.409.435.973.664 1.595.664h.015c.106 0 .215-.005.327-.018.803-.088 1.609-.475 2.428-1.117a15.358 15.358 0 0 0 2.304-2.195l-.146.819c-.052.24-.074.455-.074.644a.985.985 0 0 0 .009.183c.033.326.176.641.448.835.208.152.469.215.739.213.074 0 .148-.005.227-.013.464-.051.927-.19 1.383-.416.678-.326 1.364-.795 2.064-1.392.384-.325 1.133-1.128 2.322-2.461l.243-.272-1.19-1.146zM222.376 108.836v.111l-.005.003.005-.114zm12.108 7.086-.294.271c-.482.441-.957.916-1.431 1.425-.575.638-1.059.949-1.208.977a.876.876 0 0 1-.076-.318 2.824 2.824 0 0 1-.013-.278c0-.782.225-2.252.683-4.343.551-2.558.886-4.211 1.003-4.99.041-.317.065-.609.065-.885 0-.143-.004-.283-.018-.417-.054-.592-.243-1.092-.611-1.438a1.695 1.695 0 0 0-1.182-.446c-.073 0-.146.004-.217.01-.733.071-1.526.473-2.45 1.161-1.275.975-2.376 1.986-3.304 3.032l.288-2.184c.024-.217.038-.381.038-.519 0-.032.003-.066-.002-.116-.017-.273-.205-.506-.421-.629a1.223 1.223 0 0 0-.655-.165c-.06 0-.114.002-.171.008-.719.067-1.497.395-2.363.951-.893.575-1.996 1.627-3.36 3.17l-.256.288 1.25 1.059.249-.323a10.35 10.35 0 0 1 1.783-1.837c.24-.21.438-.314.518-.344a.682.682 0 0 1 .01.08l.002.059c0 .09-.012.238-.035.433l-.937 6.637a97.487 97.487 0 0 1-.807 5.013l-.094.49 3.394-.304.891-6.403c.18-1.348.476-2.324.835-2.904.612-.983 1.412-1.865 2.399-2.644.654-.527 1.188-.776 1.514-.801a.703.703 0 0 1 .084-.005c.231.046.136-.024.185.124 0 .027.003.037 0 .044.003.238-.111 1.089-.35 2.434-.822 3.757-1.238 6.224-1.24 7.484 0 .136.006.258.017.363.072.746.243 1.32.606 1.717.302.333.733.513 1.192.508.059 0 .122-.002.19-.007.599-.06 1.224-.381 1.94-.92 1.11-.83 2.152-1.886 3.124-3.164l.182-.242-.947-1.112zM239.47 112.303c.145-1.041.391-2.076.738-3.103.291-.842.67-1.455 1.12-1.86.338-.305.656-.449.982-.473.033-.002.062-.005.098-.005.271.005.46.083.653.263.202.192.329.471.364.898.001.036.005.082.005.124 0 .489-.219 1.036-.724 1.648-.711.837-1.792 1.679-3.236 2.508zm5.539 2.442c-1.374 1.185-2.431 1.976-3.123 2.36-.511.285-.967.431-1.37.46-.045.001-.092.005-.127.005-.35-.005-.555-.097-.735-.282-.18-.177-.363-.661-.416-1.436a8.17 8.17 0 0 1-.027-.692c0-.266.011-.539.033-.818 2.025-1.092 3.35-1.843 3.999-2.273 1.311-.895 2.224-1.733 2.74-2.563.442-.725.68-1.466.677-2.209 0-.086-.001-.176-.008-.268-.054-.779-.36-1.443-.916-1.886-.487-.393-1.119-.571-1.843-.571a4.34 4.34 0 0 0-.358.015c-2.516.18-4.554 1.838-6.059 4.776-1.184 2.261-1.785 4.511-1.785 6.732 0 .311.012.62.037.927.095 1.253.38 2.195.95 2.817.487.54 1.176.816 1.96.817l.016-.001c.088 0 .181-.002.278-.008 2.201-.172 4.582-1.754 7.245-4.648l.229-.251-1.105-1.25-.292.247z" fill="#447A1C"/>
    <path d="M253.544 103.927c-.036 0-.064 0-.093.002-.742.053-1.625.455-2.754 1.17-1.136.725-2.172 1.66-3.112 2.804l-.217.266 1.238 1.223.272-.3c1.206-1.378 2.16-2.099 2.395-2.153-.011.141-.092.565-.255 1.17l-.947 4.408a319.858 319.858 0 0 0-1.522 7.74c-.563 3.075-1.053 4.946-1.334 5.397-.311.512-.647.721-1.15.761l-.057.002c-.27.003-.759-.118-1.398-.388-.601-.252-1.083-.392-1.496-.394-.036 0-.066.002-.098.003a1.423 1.423 0 0 0-.979.459 1.306 1.306 0 0 0-.359 1.009c.03.531.386.979.896 1.287.467.286 1.055.409 1.743.409.12 0 .249-.004.38-.01 1.74-.103 3.242-.908 4.425-2.346 1.209-1.469 2.161-4.062 2.947-7.828l2.317-10.996c.268-1.28.408-2.068.409-2.485 0-.011.003-.032 0-.08a1.166 1.166 0 0 0-.425-.847 1.307 1.307 0 0 0-.826-.283zM255.948 96.938a1.58 1.58 0 0 0-1.071-.4c-.045 0-.083.002-.119.003-.559.03-1.061.304-1.428.749a2.19 2.19 0 0 0-.524 1.446c0 .057.002.112.005.163.026.46.203.88.53 1.177a1.54 1.54 0 0 0 1.058.409c.006 0 .011 0 .017-.002l.112-.001c.557-.032 1.046-.325 1.417-.786a2.29 2.29 0 0 0 .533-1.472c0-.041.003-.09 0-.144-.024-.45-.205-.857-.53-1.142zM264.32 103.876v-.002.002zm-1.385 1.734.065-.002c.521.006.963.244 1.405.857.433.596.736 1.754.811 3.436.01.231.017.462.017.686-.001 1.929-.411 3.562-1.216 4.92-.713 1.169-1.46 1.684-2.26 1.719-.031.003-.066.003-.088.003-.528-.007-.918-.208-1.295-.71-.548-.746-.879-1.83-.948-3.269a16.626 16.626 0 0 1-.021-.851c0-1.996.369-3.58 1.071-4.757.83-1.39 1.664-2 2.447-2.032l-.018-.378.03.378zm5.976 3.12c-.081-1.646-.535-2.964-1.413-3.907-.806-.875-1.83-1.339-2.985-1.333-.071 0-.142.002-.212.007v-.002c-2.742.122-4.997 1.595-6.663 4.278-1.223 1.984-1.836 4.114-1.836 6.364 0 .201.005.402.015.607.068 1.447.533 2.632 1.412 3.473.804.777 1.85 1.172 3.048 1.172h.018c.087 0 .181 0 .277-.005 2.155-.101 4.125-1.282 5.871-3.436 1.643-2.019 2.481-4.268 2.479-6.696 0-.172-.004-.346-.011-.522z" fill="#447A1C"/>
    <path d="M231.273 10.818c0 1.466-.498 2.904-1.466 4.283-.978 1.397-2.413 2.514-4.275 3.352-1.87.843-3.944 1.262-6.209 1.26-.304 0-.739-.016-1.311-.046l-1.64 6.272c-.253.986-.534 1.96-.842 2.924.921.199 1.727.296 2.414.296.99 0 2.067-.187 3.234-.571l.638-.21-.447 2.06-.224.061c-1.135.301-2.105.456-2.924.456-.769 0-1.861-.08-3.302-.235-1.13-.14-2.044-.208-2.734-.208-1.35 0-2.741.157-4.171.477l-.595.131.448-1.956.258-.042c1.453-.23 2.419-.581 2.853-.952.658-.531 1.284-1.743 1.756-3.626l3.229-12.65c.14-.579.205-.989.204-1.16-.005-.12-.035-.205-.16-.329a.546.546 0 0 0-.397-.159 2.9 2.9 0 0 0-.371.04l-.581.086.478-1.766.267-.025c2.057-.197 3.812-.477 5.257-.838l.696-.175-.237.67c-.347.972-.726 2.255-1.135 3.85l-1.495 5.499 1.491.079.201.004c.781 0 1.651-.212 2.608-.646 1-.457 1.913-1.269 2.737-2.467.81-1.185 1.205-2.44 1.208-3.803-.006-1.333-.465-2.317-1.41-3.086-.929-.748-2.419-1.163-4.495-1.161-2.363 0-4.671.578-6.95 1.743-2.276 1.168-4.014 2.645-5.238 4.438-1.23 1.808-1.826 3.56-1.826 5.274 0 .84.156 1.55.452 2.143.292.584.832 1.192 1.641 1.796.735.536 1.197 1.107 1.205 1.784.003.405-.165.79-.469 1.061a1.558 1.558 0 0 1-1.077.42c-1.041-.005-1.952-.693-2.771-1.878-.842-1.218-1.253-2.745-1.253-4.547 0-3.295 1.294-6.319 3.831-9.005 3.328-3.55 7.827-5.324 13.39-5.32 2.118 0 3.874.27 5.274.83 1.386.556 2.454 1.33 3.168 2.332.706.986 1.069 2.078 1.067 3.24zM235.833 28.715c-.733-.008-1.265-.3-1.733-.988-.643-.971-.989-2.34-.985-4.125-.004-2.97.56-5.258 1.639-6.88 1.106-1.67 2.191-2.403 3.202-2.396.724.006 1.303.346 1.847 1.173.511.786.813 2.241.807 4.32 0 2.765-.614 5.043-1.821 6.872-.955 1.41-1.93 2.024-2.956 2.024zm7.73-14.949c-.985-1.176-2.285-1.792-3.788-1.786-3.347-.006-6.174 1.65-8.372 4.836-1.753 2.567-2.637 5.382-2.637 8.413-.003 1.77.491 3.227 1.507 4.296 1.002 1.06 2.356 1.599 3.959 1.599h.018c2.623.002 5.086-1.32 7.354-3.858 2.282-2.543 3.442-5.454 3.44-8.671 0-2.014-.479-3.642-1.481-4.829zM259.264 12.781c-.788-.55-1.85-.8-3.167-.8-1.819-.002-3.369.548-4.57 1.653-1.191 1.088-1.818 2.415-1.813 3.9.001 1.633.804 3.287 2.326 4.959 1.062 1.158 1.749 1.997 2.024 2.452.277.46.404.895.405 1.325-.001.44-.136.893-.435 1.373a2.613 2.613 0 0 1-1.197 1.035c-.527.233-1.142.355-1.866.355-.611 0-1.034-.142-1.33-.392-.332-.28-.459-.54-.465-.897 0-.118.005-.267.016-.443.019-.223.027-.414.027-.571.006-.454-.2-.882-.551-1.197a1.854 1.854 0 0 0-1.287-.491 1.929 1.929 0 0 0-1.436.602c-.385.393-.583.916-.58 1.489-.004 1.104.479 2.079 1.382 2.816.931.766 2.289 1.112 4.036 1.112h.012c2.093 0 3.854-.586 5.213-1.772 1.351-1.169 2.063-2.597 2.058-4.2-.004-1.63-.863-3.289-2.483-4.988-1.145-1.195-1.859-2.075-2.1-2.542a3.158 3.158 0 0 1-.386-1.502c.003-.578.182-1.01.562-1.388.394-.384.795-.55 1.281-.554.495-.007 1.1.346 1.768 1.223.389.497.672.811.966.994.267.16.578.235.908.233.502.004.972-.183 1.327-.529.359-.338.56-.788.555-1.266.005-.781-.446-1.467-1.2-1.989zM263.848 25.23c.002-1.746.397-3.497 1.199-5.266.804-1.778 1.671-2.977 2.542-3.61.89-.647 1.919-.971 3.136-.973.4 0 .892.05 1.47.15l-1.673 6.198c-.513 1.927-1.316 3.369-2.375 4.356-1.09 1.014-2.067 1.472-2.904 1.47-.423-.008-.708-.145-.983-.486-.244-.307-.416-.921-.412-1.839zm13.204-.2-.299.287a13.734 13.734 0 0 1-2.479 1.889c-.472.288-.826.402-.894.392-.156-.045-.094.077-.152-.276-.002-.364.152-1.347.465-2.84.567-2.768 1.173-5.208 1.811-7.32l1.791-5.963-2.209.464-.084.139-.386.62a12.22 12.22 0 0 0-1.193-.06c-1.851 0-3.392.271-4.62.839-1.554.73-3.023 1.864-4.405 3.386a18.761 18.761 0 0 0-3.312 5.09c-.823 1.866-1.242 3.576-1.242 5.137 0 1.312.316 2.418.979 3.275.51.672 1.298 1.022 2.213 1.014.969 0 1.992-.358 3.074-1.03a18.867 18.867 0 0 0 3.347-2.599l-.388 1.303c-.118.384-.185.696-.187.975-.002.389.121.764.402 1.018.284.257.67.353 1.097.353a5.05 5.05 0 0 0 1.718-.317c.866-.31 1.763-.782 2.697-1.418.499-.34 1.533-1.225 3.168-2.696l.271-.241-1.183-1.421zM290.626 15.123l-.898 3.88c-.647 2.733-1.183 4.47-1.527 5.09-.61 1.058-1.439 1.96-2.5 2.707-.725.494-1.344.715-1.828.713-.376-.005-.7-.156-1.046-.553-.326-.384-.496-.87-.498-1.525 0-1.51.41-3.323 1.246-5.426.834-2.102 1.71-3.49 2.532-4.152.866-.698 1.709-1.023 2.562-1.025.359 0 1.027.094 1.957.291zM304.301.538c-.425-.37-.991-.54-1.626-.538-1.147 0-2.361.264-3.645.777a10.871 10.871 0 0 0-3.452 2.197c-1.007.946-1.824 2.073-2.459 3.369-.609 1.252-1.225 3.154-1.871 5.738a8.66 8.66 0 0 0-1.121-.101c-1.535.002-3.164.671-4.91 1.949-1.769 1.293-3.348 3.267-4.76 5.904-1.409 2.635-2.131 4.991-2.131 7.083 0 1.317.263 2.366.853 3.12.561.73 1.335 1.137 2.208 1.13 1.009-.001 2.095-.354 3.274-1.023.944-.536 2.036-1.423 3.297-2.666l-.324 1.112c-.16.568-.247.974-.249 1.29-.003.354.175.688.448.927.288.256.675.381 1.083.381h.01c.867-.003 1.915-.396 3.231-1.127.973-.546 2.396-1.61 4.321-3.21l.275-.23-1.047-1.401-.312.238c-1.392 1.066-2.339 1.735-2.78 1.975-.304.165-.547.228-.71.228-.194-.04-.181.043-.238-.424-.003-.415.17-1.423.524-2.916l3.03-12.764c.809-3.4 1.334-5.437 1.545-6.026.331-.973.696-1.577.964-1.782a1.672 1.672 0 0 1 1.078-.37c.313 0 .976.069 1.942.208.982.143 1.647.215 2.052.215.606.002 1.143-.156 1.543-.506.394-.338.608-.826.602-1.35a1.803 1.803 0 0 0-.645-1.407zM309.909 15.531l-1.672 6.2c-.516 1.924-1.314 3.365-2.375 4.353-1.094 1.016-2.065 1.472-2.904 1.47-.426-.006-.708-.143-.983-.486-.243-.306-.415-.921-.413-1.838.003-1.746.4-3.498 1.198-5.265.806-1.777 1.673-2.98 2.545-3.612.89-.647 1.919-.97 3.134-.972.4 0 .892.05 1.47.15zm4.859 9.5-.3.285a13.562 13.562 0 0 1-2.479 1.89c-.471.287-.825.401-.895.39-.153-.044-.092.08-.152-.274-.001-.363.152-1.347.464-2.84.571-2.767 1.175-5.208 1.814-7.321l1.789-5.96-2.208.462-.084.14-.388.62a11.68 11.68 0 0 0-1.192-.062c-1.85 0-3.391.272-4.617.839-1.555.732-3.026 1.864-4.408 3.388a18.782 18.782 0 0 0-3.311 5.089c-.82 1.864-1.24 3.576-1.242 5.138 0 1.31.317 2.417.979 3.273.508.675 1.295 1.023 2.212 1.015.968 0 1.994-.358 3.074-1.03a18.805 18.805 0 0 0 3.351-2.601l-.39 1.306c-.119.383-.187.696-.187.975-.004.389.118.764.403 1.018.283.258.668.353 1.095.353.565 0 1.14-.107 1.718-.32.862-.308 1.762-.781 2.697-1.415.5-.343 1.534-1.224 3.169-2.695l.268-.243-1.18-1.42zM181.758 60.957l-.38 3.853c-.282 2.724-.581 4.469-.835 5.107a8.183 8.183 0 0 1-2.073 2.92c-.64.567-1.21.854-1.676.91-.051.007-.1.011-.143.011-.302-.003-.598-.119-.93-.415-.36-.33-.585-.775-.669-1.404a9.477 9.477 0 0 1-.076-1.233c0-1.206.199-2.596.599-4.165.541-2.135 1.21-3.583 1.922-4.32.747-.783 1.521-1.198 2.342-1.304.135-.019.327-.027.564-.027.351 0 .804.022 1.355.067zm12.206-14.508a1.77 1.77 0 0 0-.804-1.288 2.194 2.194 0 0 0-1.244-.35c-.13 0-.266.009-.404.028-1.108.14-2.251.543-3.43 1.197a10.576 10.576 0 0 0-3.063 2.552 11.186 11.186 0 0 0-1.956 3.563c-.431 1.284-.788 3.198-1.087 5.77a9.887 9.887 0 0 0-.207-.002c-.361 0-.651.015-.883.044-1.485.19-2.98 1.037-4.509 2.487-1.546 1.47-2.827 3.573-3.859 6.296-.827 2.18-1.249 4.135-1.249 5.868 0 .43.025.845.079 1.248.166 1.275.551 2.259 1.219 2.919.548.546 1.215.849 1.936.845l.035.001c.104 0 .21-.01.317-.021.976-.125 1.986-.602 3.043-1.394.841-.632 1.776-1.614 2.829-2.955l-.167 1.08a7.131 7.131 0 0 0-.094 1.01c0 .096.003.186.017.27.039.345.255.65.553.847.248.17.548.255.862.252.077.003.16-.004.249-.015.842-.112 1.806-.618 2.987-1.487.873-.65 2.116-1.852 3.776-3.636l.244-.26-1.202-1.243-.28.276c-1.213 1.2-2.044 1.963-2.436 2.25-.274.195-.501.287-.657.305l-.053.004c-.108-.022-.126.033-.218-.377a4.209 4.209 0 0 1-.023-.49c0-.527.053-1.329.163-2.391l1.321-12.714c.353-3.387.605-5.422.737-6.015.194-.983.471-1.608.703-1.837.273-.277.586-.433.992-.487.213-.028.618-.044 1.179-.044.216 0 .456.002.72.006.27.004.516.009.739.009.577 0 .992-.015 1.275-.05.587-.074 1.089-.295 1.437-.683.276-.318.431-.714.428-1.134a1.868 1.868 0 0 0-.015-.254zM194.435 65.43c.132-1.31.396-2.616.792-3.917.323-1.025.763-1.787 1.3-2.3.401-.388.791-.578 1.207-.621.056-.006.108-.01.163-.01.324.004.57.098.805.31.267.243.438.59.495 1.116.006.069.009.143.009.21 0 .595-.254 1.256-.828 1.992-.851 1.065-2.168 2.147-3.943 3.22zm6.879 2.65c-1.613 1.468-2.851 2.457-3.676 2.948-.61.36-1.164.558-1.661.609-.077.005-.152.01-.215.01-.397-.005-.663-.11-.89-.334-.245-.231-.481-.819-.574-1.754-.04-.39-.063-.792-.063-1.21 0-.213.007-.433.021-.656 2.41-1.39 3.98-2.343 4.743-2.88 1.536-1.116 2.595-2.148 3.174-3.15.475-.83.728-1.67.727-2.504 0-.145-.006-.292-.021-.44-.092-.922-.474-1.681-1.138-2.181-.543-.413-1.236-.604-2.029-.604-.186 0-.377.01-.578.03-2.975.303-5.337 2.334-7.035 5.898-1.26 2.594-1.897 5.15-1.897 7.663 0 .518.029 1.03.083 1.543.158 1.49.532 2.595 1.216 3.3.566.589 1.332.89 2.203.89h.018c.148 0 .299-.006.452-.022 2.598-.276 5.386-2.24 8.474-5.798l.219-.259-1.272-1.356-.281.257zM220.196 44.324c-.037-.51-.321-.96-.76-1.258-.381-.266-.851-.389-1.373-.386-.107 0-.214.004-.323.014-1.812.155-3.503.786-5.045 1.885-1.55 1.101-2.701 2.57-3.436 4.383-.483 1.22-.97 3.464-1.507 6.805l-1.455 9.202c-.479 3.014-.718 5.14-.719 6.423.001.222.009.418.025.591.053.621.256 1.15.644 1.527.328.324.76.507 1.219.507h.016c.052 0 .113-.002.172-.007 1.092-.097 2.31-.743 3.733-1.883 1.409-1.136 2.617-2.365 3.614-3.69l.21-.278-1.329-1.167-.253.292c-1.04 1.188-2.095 2.18-3.158 2.969-.52.392-.928.566-1.087.573h-.02c-.016-.004-.021-.002-.021-.002l-.008-.005c-.014-.013-.056-.098-.07-.263l-.001-.01c.016-.322.333-2.655.945-6.787l1.325-8.777c.462-3.15.809-5.264 1.035-6.32.222-1.046.533-1.713.803-1.966.174-.167.501-.305 1.018-.35.256-.021.527-.032.812-.032.313 0 .64.014.983.041.519.048.967.074 1.341.074.184 0 .351-.007.504-.02.689-.058 1.259-.26 1.657-.66a1.755 1.755 0 0 0 .509-1.425zM249.451 51.663c-.056-1.135-.465-2.183-1.203-3.109-.745-.942-1.829-1.645-3.204-2.118-1.144-.392-2.505-.581-4.091-.584-.351.003-.715.011-1.092.03-5.42.268-9.712 2.219-12.777 5.838-2.189 2.56-3.3 5.355-3.3 8.336.003.21.008.417.02.626.089 1.755.566 3.226 1.447 4.37.822 1.072 1.71 1.695 2.687 1.7.036 0 .071 0 .11-.003.396-.017.768-.18 1.04-.463.26-.265.407-.617.404-.984v-.06c-.043-.682-.526-1.217-1.27-1.706-.813-.55-1.37-1.113-1.679-1.665-.323-.562-.507-1.244-.549-2.063a4.512 4.512 0 0 1-.011-.37c0-1.55.5-3.161 1.525-4.845 1.1-1.806 2.716-3.328 4.873-4.576 2.16-1.243 4.38-1.919 6.674-2.034.242-.012.475-.019.705-.019 1.662 0 2.898.327 3.725.93.957.7 1.45 1.633 1.524 2.928.003.114.007.23.007.342 0 1.196-.327 2.326-.992 3.414-.739 1.206-1.588 2.039-2.537 2.532-.985.513-1.883.758-2.696.761l-1.449-.005 1.181-5.414c.318-1.572.622-2.841.911-3.803l.199-.68-.682.207c-1.388.422-3.084.78-5.076 1.072l-.267.04-.377 1.763.575-.117c.168-.034.296-.053.356-.054l.033-.003c.141.004.237.04.355.134.125.114.16.193.167.306-.003.018 0 .047 0 .055 0 .197-.042.569-.14 1.082l-2.509 12.477c-.364 1.854-.914 3.063-1.524 3.611-.403.38-1.324.77-2.728 1.063l-.255.055-.342 1.946.588-.16a18.626 18.626 0 0 1 4.037-.667c.195-.012.417-.016.657-.016.564 0 1.235.027 2.013.086.976.055 1.788.084 2.444.084.291 0 .551-.005.783-.017.798-.04 1.737-.24 2.826-.588l.226-.072.334-2.05-.628.241c-1.116.432-2.155.667-3.119.716a7.166 7.166 0 0 1-.391.008c-.576 0-1.229-.059-1.961-.178.25-.951.474-1.91.67-2.88l1.284-6.177h.204c.452 0 .805-.006 1.063-.02 2.209-.11 4.21-.619 5.989-1.53 1.773-.907 3.115-2.065 4-3.477.802-1.287 1.222-2.6 1.222-3.92l-.009-.326zM257.73 62.313c-.46 1.887-1.208 3.306-2.221 4.287-1.038 1.014-1.977 1.478-2.792 1.493a.034.034 0 0 0-.014-.002l-.018.002c-.392-.006-.661-.133-.924-.45-.245-.29-.425-.884-.442-1.78-.004-.081-.004-.159-.004-.241 0-1.622.351-3.255 1.059-4.91.744-1.748 1.565-2.938 2.399-3.57.85-.647 1.846-.983 3.029-1.01.031-.002.066-.002.111-.002.365 0 .804.04 1.311.116l-1.494 6.067zm6.446 3.067-.293.292a13.321 13.321 0 0 1-2.371 1.895c-.408.26-.726.382-.832.397a.517.517 0 0 0-.032-.001h-.008c-.094-.005-.076-.013-.084-.018-.007-.004-.046-.075-.049-.236l-.108-.032.106.001c-.001-.38.127-1.323.394-2.745.496-2.71 1.034-5.1 1.609-7.175l1.621-5.861-2.163.502-.08.14-.359.608a11.764 11.764 0 0 0-.917-.038c-.082 0-.165.002-.245.004-1.803.038-3.301.337-4.487.914-1.5.748-2.908 1.882-4.226 3.395a18.394 18.394 0 0 0-3.121 5.034c-.731 1.758-1.104 3.375-1.104 4.849 0 .067.001.132.004.193.027 1.275.36 2.349 1.026 3.172.489.62 1.227.948 2.079.948h.106c.948-.024 1.94-.393 2.982-1.072a18.45 18.45 0 0 0 3.183-2.58l-.341 1.246c-.104.357-.162.656-.162.918 0 .008-.003.031.002.067.001.354.133.72.415.963.269.237.631.324 1.025.324h.049a4.91 4.91 0 0 0 1.68-.347c.837-.32 1.703-.8 2.602-1.44.482-.344 1.47-1.224 3.03-2.693l.264-.247-1.195-1.377zM282.63 41.56c-.429-.357-1.001-.515-1.657-.512-1.821 0-3.561.488-5.192 1.45-1.64.966-2.914 2.335-3.804 4.076-.584 1.176-1.267 3.372-2.091 6.653l-2.246 9.046c-.864 3.475-1.3 5.75-1.304 6.931 0 .623.16 1.166.513 1.574.33.395.815.618 1.335.618h.023c1.097-.007 2.364-.548 3.879-1.56 1.506-1.013 2.814-2.138 3.922-3.371l.234-.262-1.222-1.273-.279.27c-1.139 1.096-2.275 1.993-3.402 2.692-.555.343-.975.485-1.133.478-.047-.008-.036-.004-.047-.008-.01-.008-.049-.095-.049-.271-.014-.032.508-2.403 1.532-6.692l2.078-8.633c.735-3.101 1.266-5.18 1.584-6.21.311-1.023.676-1.663.969-1.89.187-.153.528-.262 1.046-.262.543 0 1.139.051 1.786.159.765.135 1.367.208 1.826.208l.008.003c.69 0 1.277-.154 1.707-.52.411-.344.639-.838.632-1.375.005-.512-.237-.984-.648-1.318z" fill="#00539F"/>
    <path d="m301.003 66.502-.293.272a19.55 19.55 0 0 1-2.541 2.028c-.185.112-.357.16-.53.16h-.034c-.184-.05-.126.05-.181-.286l.004-.028c.003-.563.615-2.716 1.819-6.216.964-2.849 1.52-4.543 1.686-5.123.159-.58.249-1.093.264-1.544v-.138c0-.677-.153-1.253-.533-1.669-.39-.428-.964-.643-1.618-.658-.023-.002-.06-.002-.069-.002-.775.006-1.71.35-2.894.99-.967.525-2.052 1.331-3.267 2.42.191-.695.296-1.24.311-1.657-.003-.042 0-.068 0-.116 0-.532-.113-.992-.415-1.329-.317-.353-.786-.517-1.307-.53-.035-.002-.075-.002-.096-.002-1.8.02-4.075 1.39-7.019 4.031.12-.431.264-.916.431-1.457.249-.788.384-1.312.398-1.673l.003-.046-.003-.01c0-.28-.111-.567-.328-.758-.242-.216-.559-.294-.902-.304-.027-.005-.065-.002-.085-.002-.813.004-1.81.323-3.059.922-1.304.633-2.675 1.62-4.112 2.956l-.241.226 1.04 1.462.325-.287c1.632-1.48 2.832-2.187 3.105-2.154a.604.604 0 0 1 .002.07v.037c.011.093-.391 1.71-1.167 4.5l-2.782 10.22 3.792.114 1.892-7.208c.478-1.831 1.033-3.171 1.62-4.003.591-.84 1.574-1.73 2.954-2.648.764-.535 1.338-.764 1.536-.75.154.01.184.037.211.063.022.025.052.08.053.214v.043c.01.006-.118.579-.367 1.455l-3.617 12.954 3.764.114.075-.3c.522-2.118 1.298-4.857 2.332-8.216.455-1.515.968-2.595 1.491-3.226.808-.97 1.798-1.78 2.976-2.437.543-.302.967-.43 1.193-.426l.014.001c.241.056.184-.03.238.294v.044c-.003.357-.395 1.794-1.171 4.07-1.042 3.066-1.673 5.033-1.9 5.942-.227.9-.352 1.693-.372 2.386-.009.05-.004.108-.004.149-.002.703.156 1.31.506 1.78.35.48.838.785 1.389.796.034-.002.036 0 .071 0 .645-.002 1.365-.243 2.189-.687.486-.269 1.266-.867 2.419-1.83.828-.703 1.392-1.167 1.677-1.38l.325-.248-1.198-1.365zM306.74 68.682c-.175-.255-.291-.698-.291-1.335 0-.148.009-.308.019-.478.128-1.695.636-3.37 1.54-5.032.908-1.673 1.838-2.78 2.728-3.333.793-.494 1.671-.742 2.667-.742.144 0 .293.007.442.017a8.53 8.53 0 0 1 1.409.244l-2.063 5.901c-.641 1.837-1.517 3.18-2.617 4.066-1.057.848-1.981 1.233-2.756 1.233-.06 0-.115-.002-.171-.006-.405-.036-.668-.188-.907-.535zm12.255-.843a13.326 13.326 0 0 1-2.541 1.668c-.454.228-.787.321-.879.314h-.028c-.134-.054-.06.064-.108-.196 0-.016.001-.038.004-.066.023-.357.241-1.302.653-2.734.75-2.65 1.511-4.982 2.284-6.993l2.17-5.686-2.201.3-.097.133-.416.57c-.386-.065-.77-.112-1.148-.14-.403-.03-.788-.044-1.159-.043-1.304 0-2.436.176-3.395.54-1.571.603-3.078 1.604-4.531 2.99a18.35 18.35 0 0 0-3.583 4.722c-.933 1.757-1.465 3.394-1.576 4.913a7.17 7.17 0 0 0-.019.542c-.003 1.047.24 1.962.739 2.715.448.695 1.192 1.09 2.087 1.147a5.5 5.5 0 0 0 .278.008c.868 0 1.795-.278 2.79-.799a18.425 18.425 0 0 0 3.416-2.274l-.458 1.208c-.144.364-.232.664-.253.934-.008.04-.008.094-.008.135-.001.336.101.656.331.894.259.27.63.392 1.046.422.103.007.206.011.313.011.45 0 .913-.07 1.382-.201.865-.243 1.773-.641 2.728-1.193.512-.298 1.578-1.084 3.274-2.401l.285-.225-1.059-1.48-.321.265zM337.627 56.308a1.83 1.83 0 0 0-1.249-.646 1.471 1.471 0 0 0-.192-.01c-.691.006-1.437.349-2.317.96a26.048 26.048 0 0 0-4.059 3.57l.595-1.634c.271-.767.414-1.206.448-1.478.004-.056.005-.056.005-.107a.915.915 0 0 0-.282-.666c-.212-.21-.498-.315-.804-.347a2.428 2.428 0 0 0-.307-.015c-.787.002-1.78.267-3.035.772-1.45.583-2.922 1.519-4.429 2.802l-.265.228 1.003 1.396.321-.254c1.23-.98 2.088-1.588 2.487-1.789.391-.206.685-.286.77-.28l.015.003c.062.008.053.016.059.01 0 0 .011 0 .004.056 0 .02-.001.044-.004.063-.003.066-.105.451-.293 1.025a186.251 186.251 0 0 1-2.688 7.484l-2.235 5.812 3.892.418.102-.284 1.371-3.874c.914-2.586 1.571-4.237 1.93-4.884.359-.652.97-1.432 1.832-2.317.86-.886 1.626-1.52 2.273-1.904.651-.38 1.49-.69 2.523-.916 1.139-.253 1.856-.465 2.279-.779.37-.282.604-.697.65-1.156.004-.064.008-.117.008-.185a1.614 1.614 0 0 0-.408-1.074z" fill="#00539F"/>
</svg>
